# xmcd
#
# Track frame offsets: 
#        150
#        14540
#        32152
#        59238
#        80778
#        101464
#        134358
#        157427
#        175240
#        205124
#        226696
#        259284
#
# Disc length: 3996 seconds
#
# Revision: 0
# Processed by: cddbd v1.5.2PL0 Copyright (c) Steve Scherf et al.
# Submitted via: ExactAudioCopyFreeDBPlugin 1.0
#
DISCID=ad0f9a0c
DTITLE=Fred Chapellier - Electric Communion
DYEAR=2014
DGENRE=
TTITLE0=Night Work
TTITLE1=He's Walking
TTITLE2=Living In A Dream
TTITLE3=Cold As Ice
TTITLE4=Sweet Soul Music
TTITLE5=As The Years Go Passing By
TTITLE6=B Shuffle
TTITLE7=I Loved Another Woman
TTITLE8=Gary's Gone
TTITLE9=Can't You See What You're Doing To Me
TTITLE10=Under The Influence
TTITLE11=Blues For Roy
EXTD=
EXTT0=
EXTT1=
EXTT2=
EXTT3=
EXTT4=
EXTT5=
EXTT6=
EXTT7=
EXTT8=
EXTT9=
EXTT10=
EXTT11=
PLAYORDER=
